<svg width="22" height="22" viewBox="0 0 22 22" fill="none" xmlns="http://www.w3.org/2000/svg">
<path d="M1 1H9V9H1V1Z" stroke="white" stroke-linecap="round" stroke-linejoin="round"/>
<path d="M13 1H21V9H13V1Z" stroke="white" stroke-linecap="round" stroke-linejoin="round"/>
<path d="M1 13H9V21H1V13Z" stroke="white" stroke-linecap="round" stroke-linejoin="round"/>
<path d="M13 17C13 18.0609 13.4214 19.0783 14.1716 19.8284C14.9217 20.5786 15.9391 21 17 21C18.0609 21 19.0783 20.5786 19.8284 19.8284C20.5786 19.0783 21 18.0609 21 17C21 15.9391 20.5786 14.9217 19.8284 14.1716C19.0783 13.4214 18.0609 13 17 13C15.9391 13 14.9217 13.4214 14.1716 14.1716C13.4214 14.9217 13 15.9391 13 17Z" stroke="white" stroke-linecap="round" stroke-linejoin="round"/>
</svg>
