<svg width="26" height="26" viewBox="0 0 26 26" fill="none" xmlns="http://www.w3.org/2000/svg">
<path d="M21.125 13.6197L13 21.6667L4.87504 13.6197C4.33912 13.0982 3.91699 12.4713 3.63522 11.7787C3.35345 11.086 3.21815 10.3425 3.23784 9.595C3.25753 8.84749 3.43178 8.11214 3.74963 7.43527C4.06747 6.75841 4.52202 6.15469 5.08465 5.66212C5.64728 5.16956 6.30581 4.79882 7.01875 4.57326C7.7317 4.34771 8.48363 4.27221 9.22719 4.35153C9.97075 4.43085 10.6898 4.66326 11.3392 5.03414C11.9885 5.40502 12.554 5.90633 13 6.50649C13.448 5.91068 14.0142 5.41376 14.6631 5.04681C15.3119 4.67987 16.0296 4.45081 16.7711 4.37397C17.5125 4.29713 18.2619 4.37417 18.9722 4.60025C19.6825 4.82634 20.3386 5.19661 20.8992 5.68789C21.4599 6.17917 21.9131 6.78088 22.2305 7.45538C22.5479 8.12987 22.7227 8.86262 22.7439 9.60776C22.7651 10.3529 22.6322 11.0944 22.3537 11.7858C22.0751 12.4773 21.6569 13.1038 21.125 13.6262" stroke="black" stroke-width="2" stroke-linecap="round" stroke-linejoin="round"/>
</svg>
