<svg width="17" height="17" viewBox="0 0 17 17" fill="none" xmlns="http://www.w3.org/2000/svg">
<path d="M1 8.5C1 9.48491 1.19399 10.4602 1.5709 11.3701C1.94781 12.2801 2.50026 13.1069 3.1967 13.8033C3.89314 14.4997 4.71993 15.0522 5.62987 15.4291C6.53982 15.806 7.51509 16 8.5 16C9.48491 16 10.4602 15.806 11.3701 15.4291C12.2801 15.0522 13.1069 14.4997 13.8033 13.8033C14.4997 13.1069 15.0522 12.2801 15.4291 11.3701C15.806 10.4602 16 9.48491 16 8.5C16 7.51509 15.806 6.53982 15.4291 5.62987C15.0522 4.71993 14.4997 3.89314 13.8033 3.1967C13.1069 2.50026 12.2801 1.94781 11.3701 1.5709C10.4602 1.19399 9.48491 1 8.5 1C7.51509 1 6.53982 1.19399 5.62987 1.5709C4.71993 1.94781 3.89314 2.50026 3.1967 3.1967C2.50026 3.89314 1.94781 4.71993 1.5709 5.62987C1.19399 6.53982 1 7.51509 1 8.5Z" stroke="black" stroke-linecap="round" stroke-linejoin="round"/>
<path d="M1.5 6H15.5" stroke="black" stroke-linecap="round" stroke-linejoin="round"/>
<path d="M1.5 11H15.5" stroke="black" stroke-linecap="round" stroke-linejoin="round"/>
<path d="M8.08334 1C6.67946 3.24968 5.93518 5.84822 5.93518 8.5C5.93518 11.1518 6.67946 13.7503 8.08334 16" stroke="black" stroke-linecap="round" stroke-linejoin="round"/>
<path d="M8.91669 1C10.3206 3.24968 11.0648 5.84822 11.0648 8.5C11.0648 11.1518 10.3206 13.7503 8.91669 16" stroke="black" stroke-linecap="round" stroke-linejoin="round"/>
</svg>
