<svg width="18" height="19" viewBox="0 0 18 19" fill="none" xmlns="http://www.w3.org/2000/svg">
<path d="M15.75 16.25L11.25 11.75" stroke="#7A7A7A" stroke-linecap="round" stroke-linejoin="round"/>
<path d="M2.25 8C2.25 8.68944 2.3858 9.37213 2.64963 10.0091C2.91347 10.646 3.30018 11.2248 3.78769 11.7123C4.2752 12.1998 4.85395 12.5865 5.49091 12.8504C6.12787 13.1142 6.81056 13.25 7.5 13.25C8.18944 13.25 8.87213 13.1142 9.50909 12.8504C10.146 12.5865 10.7248 12.1998 11.2123 11.7123C11.6998 11.2248 12.0865 10.646 12.3504 10.0091C12.6142 9.37213 12.75 8.68944 12.75 8C12.75 7.31056 12.6142 6.62787 12.3504 5.99091C12.0865 5.35395 11.6998 4.7752 11.2123 4.28769C10.7248 3.80018 10.146 3.41347 9.50909 3.14963C8.87213 2.8858 8.18944 2.75 7.5 2.75C6.81056 2.75 6.12787 2.8858 5.49091 3.14963C4.85395 3.41347 4.2752 3.80018 3.78769 4.28769C3.30018 4.7752 2.91347 5.35395 2.64963 5.99091C2.3858 6.62787 2.25 7.31056 2.25 8Z" stroke="#7A7A7A" stroke-linecap="round" stroke-linejoin="round"/>
</svg>
