<svg width="34" height="34" viewBox="0 0 34 34" fill="none" xmlns="http://www.w3.org/2000/svg">
<path d="M17.0324 10.6245C18.4276 10.6245 19.8701 10.3775 20.885 9.90417C20.9682 9.89196 21.0485 9.85514 21.1125 9.79137C21.8107 9.41651 22.2556 8.91916 22.2556 8.3073C22.2556 6.80224 19.5644 5.9901 17.0323 5.9901C14.5002 5.9901 11.8091 6.80224 11.8091 8.3073C11.8091 9.81236 14.5002 10.6245 17.0324 10.6245ZM16.4305 9.79526C16.4151 9.77138 16.3973 9.74858 16.3765 9.72769L13.9241 7.27534C14.2686 7.15033 14.6763 7.0415 15.1409 6.95991L17.9561 9.77518C17.6634 9.79779 17.3555 9.81046 17.0323 9.81046C16.8254 9.81037 16.6252 9.80485 16.4305 9.79526ZM21.4415 8.3073C21.4415 8.52024 21.2479 8.76158 20.8862 8.98773L18.8446 6.94616C20.4864 7.21953 21.4415 7.83383 21.4415 8.3073ZM17.5628 6.81581L20.1007 9.35382C19.7782 9.46816 19.4012 9.56803 18.9762 9.64528C18.9737 9.64275 18.9721 9.63976 18.9696 9.63723L16.1677 6.83535C16.4428 6.81554 16.7307 6.80432 17.0324 6.80432C17.214 6.80423 17.3907 6.80839 17.5628 6.81581ZM13.1456 7.64821L15.1546 9.65722C13.553 9.3787 12.6233 8.77452 12.6233 8.3073C12.6233 8.10105 12.8055 7.86812 13.1456 7.64821Z" fill="#FF7010"/>
<path d="M9.20757 17.409C11.7397 17.409 14.4308 16.5968 14.4308 15.0918C14.4308 13.5867 11.7397 12.7746 9.20757 12.7746C6.67544 12.7746 3.98438 13.5867 3.98438 15.0918C3.98438 16.5968 6.67544 17.409 9.20757 17.409ZM6.36643 16.2132L7.99895 14.8946L9.68972 16.5853C9.53287 16.5915 9.37221 16.5948 9.20748 16.5948C8.05802 16.5948 7.09617 16.4395 6.36643 16.2132ZM13.6166 15.0918C13.6166 15.5906 12.556 16.2456 10.7494 16.4935L10.0279 15.7721L12.1084 13.9889C13.0756 14.2995 13.6166 14.7354 13.6166 15.0918ZM11.1352 13.7509L9.45064 15.1948L7.91482 13.659C8.31375 13.6143 8.74515 13.5887 9.20757 13.5887C9.92745 13.5887 10.5731 13.6499 11.1352 13.7509ZM6.92638 13.822L7.4201 14.3157L5.52037 15.8501L5.54642 15.8823C5.06129 15.6262 4.79851 15.3397 4.79851 15.0918C4.79851 14.6653 5.57338 14.1249 6.92638 13.822Z" fill="#FF7010"/>
<path d="M25.2403 10.789V8.30766C25.2403 8.30649 25.24 8.30549 25.24 8.30432C25.237 5.89041 21.6328 4 17.0323 4C12.43 4 8.82471 5.89204 8.82471 8.30739C8.82471 8.30748 8.82471 8.30757 8.82471 8.30766V8.30775V10.7891C4.40687 10.8906 1 12.7438 1 15.0917V25.2925C1 27.7079 4.60516 29.5999 9.20763 29.5999C12.9238 29.5999 15.9893 28.3662 17.0323 26.6198C18.0753 28.3662 21.1409 29.5999 24.8571 29.5999C29.4596 29.5999 33.0648 27.708 33.0648 25.2925V15.0917C33.0648 12.7439 29.6581 10.8907 25.2403 10.789ZM32.2506 15.0917C32.2506 16.9853 28.8648 18.585 24.8571 18.585C20.8495 18.585 17.4636 16.9853 17.4636 15.0917C17.4636 13.1982 20.8494 11.5985 24.8571 11.5985C28.8647 11.5985 32.2506 13.1982 32.2506 15.0917ZM23.7367 10.8227C23.9976 10.6296 24.2284 10.424 24.4262 10.2081V10.79C24.1934 10.796 23.9635 10.8071 23.7367 10.8227ZM17.0323 13.7646C16.775 13.3338 16.395 12.934 15.912 12.5763C16.2777 12.6015 16.6515 12.6147 17.0323 12.6147C17.4132 12.6147 17.7869 12.6015 18.1527 12.5763C17.6697 12.9339 17.2896 13.3337 17.0323 13.7646ZM17.0323 4.81404C21.04 4.81404 24.4259 6.41372 24.4259 8.3073C24.4259 10.2009 21.04 11.8006 17.0323 11.8006C13.0246 11.8006 9.63884 10.2009 9.63884 8.3073C9.63884 6.41372 13.0246 4.81404 17.0323 4.81404ZM10.328 10.8227C10.1013 10.8071 9.8716 10.7959 9.63884 10.79V10.2084C9.83659 10.4243 10.0673 10.6297 10.328 10.8227ZM9.20763 11.5985C13.2153 11.5985 16.6011 13.1982 16.6011 15.0917C16.6011 16.9853 13.2153 18.585 9.20763 18.585C5.19993 18.585 1.81413 16.9853 1.81413 15.0917C1.81413 13.1982 5.19993 11.5985 9.20763 11.5985ZM9.20763 28.7857C5.19993 28.7857 1.81413 27.186 1.81413 25.2925V16.9929C3.13022 18.4297 5.91329 19.3991 9.20763 19.3991C12.502 19.3991 15.2851 18.4297 16.6011 16.9928V25.2925C16.6011 27.186 13.2153 28.7857 9.20763 28.7857ZM32.2506 25.2925C32.2506 27.1861 28.8648 28.7858 24.8571 28.7858C20.8495 28.7858 17.4636 27.186 17.4636 25.2925V16.9929C18.7796 18.4297 21.5627 19.3991 24.8571 19.3991C28.1514 19.3991 30.9345 18.4297 32.2505 16.9929V25.2925H32.2506Z" fill="#FF7010"/>
<path d="M19.6338 15.0918C19.6338 16.5968 22.3249 17.409 24.857 17.409C27.389 17.409 30.0802 16.5968 30.0802 15.0918C30.0802 13.5867 27.389 12.7746 24.857 12.7746C22.3249 12.7746 19.6338 13.5867 19.6338 15.0918ZM29.2662 15.0918C29.2662 15.7194 27.5888 16.5948 24.8571 16.5948C22.1254 16.5948 20.448 15.7194 20.448 15.0918C20.448 14.4641 22.1254 13.5887 24.8571 13.5887C27.5888 13.5887 29.2662 14.4641 29.2662 15.0918Z" fill="#FF7010"/>
<path d="M22.092 15.0963C22.092 15.9128 23.8244 16.0348 24.8571 16.0348C25.8898 16.0348 27.6221 15.9128 27.6221 15.0963C27.6221 14.2797 25.8898 14.1577 24.8571 14.1577C23.8244 14.1577 22.092 14.2797 22.092 15.0963ZM24.8571 15.2207C24.2261 15.2207 23.7264 15.1644 23.38 15.0963C23.7264 15.0282 24.2261 14.9718 24.8571 14.9718C25.4881 14.9718 25.9878 15.0281 26.3341 15.0963C25.9878 15.1644 25.4881 15.2207 24.8571 15.2207Z" fill="#FF7010"/>
</svg>
