<svg width="32" height="30" viewBox="0 0 32 30" fill="none" xmlns="http://www.w3.org/2000/svg">
<path d="M31.0492 11.3025C30.9662 11.1765 30.8833 11.0504 30.7588 11.0084C30.8833 10.8403 30.9662 10.5882 30.9247 10.3782C30.8833 9.45378 30.4683 7.56303 28.4353 5.21008C26.3607 2.85714 24.5351 2.22689 23.6637 2.05882C23.4978 2.01681 23.3733 2.05882 23.2488 2.05882C23.2073 1.84874 23.0829 1.63866 22.9169 1.5126C22.2115 0.92437 20.5519 0 17.44 0C14.3282 0 12.6685 0.966386 11.9217 1.5126C11.5482 1.80672 11.4238 2.26891 11.6312 2.68908L12.2951 4.2437L16.4442 14.4118C16.4442 14.4538 16.4857 14.4958 16.5272 14.5378C16.4442 14.4958 16.3198 14.4958 16.1953 14.4958L5.28304 15.4622L3.62338 15.5882C3.16698 15.6303 2.79355 15.9664 2.71057 16.4286C2.54461 17.3529 2.50311 19.2857 3.99681 22.0168C5.44901 24.7899 7.10866 25.7983 7.93849 26.1765C8.06297 26.2185 8.18744 26.2605 8.35341 26.2605C8.35341 26.2605 8.35341 26.2605 8.3949 26.2605C8.3949 26.4706 8.47788 26.6807 8.60236 26.8908C9.18324 27.605 10.5525 28.9496 13.5813 29.6639C14.6601 29.916 15.5729 30 16.3613 30C17.772 30 18.7263 29.7059 19.2657 29.4538C19.3901 29.4118 19.5146 29.2857 19.5976 29.2017C19.7635 29.3277 19.971 29.4538 20.1785 29.4538C20.2614 29.4538 20.3444 29.4538 20.4274 29.4538C21.4232 29.4538 23.2073 29.1597 25.4894 27.521C28.0203 25.7143 28.8502 23.9496 29.1406 23.0672C29.1821 22.9412 29.1821 22.7731 29.1821 22.6471C29.3896 22.605 29.597 22.521 29.763 22.3529C30.4269 21.6807 31.5471 20.1261 31.8791 17.0168C32.294 13.9076 31.5471 12.1008 31.0492 11.3025ZM23.2903 2.98319C23.3318 2.89916 23.4148 2.85714 23.4563 2.89916C24.2446 3.06723 25.9043 3.61345 27.7714 5.7563C29.6385 7.89916 30.0119 9.57983 30.0534 10.4202C30.0534 10.5042 30.0119 10.5462 29.929 10.5882L29.2651 10.8403C29.1821 10 28.7672 8.40336 27.066 6.42857C25.3649 4.45378 23.7882 3.86555 22.9584 3.69748L23.2903 2.98319ZM29.3066 16.7227C29.0161 19.2857 28.0618 20.5042 27.6469 20.9244C27.6054 20.9664 27.5639 20.9664 27.5224 20.9244L22.668 18.0672L18.3943 15.3361L23.2488 13.6975L28.5182 12.1849C28.5597 12.1849 28.6012 12.1849 28.6427 12.2269C28.9746 12.7311 29.597 14.1597 29.3066 16.7227ZM22.7094 4.4958C23.2488 4.57983 24.7425 5.04202 26.4852 7.01681C28.1863 8.94958 28.4353 10.5042 28.4768 11.0504C28.4768 11.0924 28.4353 11.1345 28.3938 11.1345L23.0414 12.8992L18.1869 14.2857L20.22 9.53782L22.6265 4.53782C22.6265 4.4958 22.668 4.4958 22.7094 4.4958ZM12.3366 2.39496C12.2951 2.31092 12.3366 2.22689 12.3781 2.18487C13.0419 1.68067 14.5356 0.840336 17.357 0.840336C20.1785 0.840336 21.6722 1.68067 22.2945 2.18487C22.336 2.22689 22.3775 2.31092 22.336 2.39496L22.0456 3.06723C21.3402 2.56303 19.9295 1.80672 17.357 1.80672C14.7846 1.80672 13.2909 2.56303 12.627 3.06723L12.3366 2.39496ZM13.0004 3.94958C13.0004 3.90756 13.0004 3.86555 13.0419 3.82353C13.4983 3.4874 14.8261 2.64706 17.3985 2.64706C19.888 2.64706 21.1743 3.36134 21.7136 3.82353C21.7551 3.86555 21.7551 3.90756 21.7551 3.94958L19.5146 9.20168L17.1911 14.0756L13.0004 3.94958ZM17.2741 15.042C17.2741 15.084 17.2741 15.084 17.2741 15.126C17.2741 15.126 17.2326 15.126 17.1911 15.1681C17.1496 15.1681 17.1496 15.1681 17.1081 15.126C17.1081 15.084 17.1081 15.042 17.0666 15L17.0251 14.958C17.0666 14.958 17.1496 15 17.1911 15C17.2326 15.042 17.2326 15.042 17.2741 15.042ZM16.7762 16.3025L17.8135 21.3866L18.6848 26.8487C18.6848 26.8908 18.6848 26.9328 18.6433 26.9748C18.1454 27.2269 16.6517 27.6891 14.1622 27.1008C11.6727 26.5126 10.5939 25.4202 10.2205 24.958C10.179 24.916 10.179 24.874 10.2205 24.8319L13.5813 20.2521L16.7762 16.3025ZM8.47788 25.3782C8.43639 25.4202 8.35341 25.4622 8.27042 25.4202C7.68954 25.1681 6.11287 24.2437 4.70216 21.5966C3.37443 19.0756 3.37443 17.3529 3.5404 16.5546C3.5404 16.4706 3.62338 16.4286 3.70637 16.4286L4.45321 16.3866C4.32874 17.2269 4.37023 18.9076 5.57348 21.1765C6.81822 23.4874 8.14595 24.4118 8.93429 24.7899L8.47788 25.3782ZM6.27883 20.7983C5.07558 18.5294 5.15857 16.9748 5.24155 16.3866C5.24155 16.3445 5.28304 16.3025 5.32453 16.3025L16.1953 15.3782C16.1538 15.4202 16.1123 15.4202 16.1123 15.4622L12.959 19.7479L9.51517 24.0756C9.47368 24.1176 9.43218 24.1176 9.39069 24.1176C8.8513 23.8655 7.52358 23.0672 6.27883 20.7983ZM18.8922 28.6975C18.3114 28.9916 16.6102 29.5378 13.7058 28.8655C10.9259 28.1933 9.68113 27.0168 9.18324 26.3866C9.14174 26.3445 9.14174 26.2605 9.18324 26.1765L9.63964 25.5882C10.179 26.2605 11.4238 27.3109 13.9133 27.8992C14.8676 28.1092 15.6559 28.1933 16.3613 28.1933C17.523 28.1933 18.3113 27.9412 18.8092 27.7311L18.9337 28.4874C19.0167 28.6134 18.9752 28.6975 18.8922 28.6975ZM19.7635 26.8067L18.6433 21.2185L17.8135 16.1765L22.253 18.7815L26.8586 21.7647C26.9001 21.8067 26.9001 21.8487 26.9001 21.8908C26.7341 22.437 26.1117 23.8655 23.9957 25.3782C21.8796 26.8487 20.3859 26.9748 19.805 26.9328C19.805 26.8908 19.7635 26.8908 19.7635 26.8067ZM25.033 26.8487C22.7094 28.4874 21.0083 28.6555 20.22 28.6134C20.137 28.6134 20.0955 28.5714 20.054 28.4874L19.9295 27.7311C19.971 27.7311 19.971 27.7311 20.0125 27.7311C20.8838 27.7311 22.4605 27.479 24.4936 26.0504C26.6096 24.5378 27.398 23.0672 27.6469 22.2689L28.2693 22.6471C28.3523 22.6891 28.3523 22.7731 28.3523 22.8571C28.1863 23.4874 27.481 25.1261 25.033 26.8487ZM31.0907 16.9328C30.7588 19.7899 29.763 21.1765 29.1821 21.7647C29.1406 21.8067 29.0576 21.8487 28.9747 21.8067L28.3523 21.4286C28.9332 20.7983 29.846 19.4118 30.1364 16.8487C30.4269 14.2437 29.846 12.6891 29.4311 11.9328L30.1364 11.7227C30.2194 11.6807 30.3024 11.7227 30.3439 11.8067C30.7588 12.479 31.4226 14.0756 31.0907 16.9328Z" fill="#FF7010"/>
<path d="M19.1412 3.52942C18.3113 3.52942 17.6475 4.20169 17.6475 5.04202C17.6475 5.88236 18.3113 6.55463 19.1412 6.55463C19.971 6.55463 20.6348 5.88236 20.6348 5.04202C20.6348 4.20169 19.971 3.52942 19.1412 3.52942ZM19.1412 5.75631C18.7677 5.75631 18.4773 5.46219 18.4773 5.08404C18.4773 4.70589 18.7677 4.41177 19.1412 4.41177C19.5146 4.41177 19.805 4.70589 19.805 5.08404C19.805 5.46219 19.5146 5.75631 19.1412 5.75631Z" fill="#FF7010"/>
<path d="M17.1912 7.01678C16.4029 7.01678 15.7805 7.64704 15.7805 8.44536C15.7805 9.24368 16.4029 9.87393 17.1912 9.87393C17.9796 9.87393 18.6019 9.24368 18.6019 8.44536C18.6019 7.64704 17.9796 7.01678 17.1912 7.01678ZM17.1497 9.03359C16.8178 9.03359 16.5689 8.78149 16.5689 8.44536C16.5689 8.10922 16.8178 7.85712 17.1497 7.85712C17.4817 7.85712 17.7306 8.10922 17.7306 8.44536C17.7306 8.78149 17.4817 9.03359 17.1497 9.03359Z" fill="#FF7010"/>
<path d="M24.5765 6.97481C24.1201 6.47061 23.3318 6.4286 22.8339 6.89078C22.5849 7.10086 22.4604 7.437 22.4189 7.73112C22.4189 8.06725 22.5019 8.40339 22.7094 8.61347C22.9168 8.90759 23.2488 9.07565 23.5807 9.07565C23.6222 9.07565 23.6222 9.07565 23.6637 9.07565C23.9541 9.07565 24.2446 8.9496 24.4935 8.73952C24.9914 8.27734 25.0329 7.47902 24.5765 6.97481ZM23.8711 8.1933C23.7882 8.27734 23.7052 8.31935 23.5807 8.27733C23.4562 8.27733 23.3732 8.23532 23.2903 8.15128C23.2073 8.06725 23.1658 7.98322 23.2073 7.85717C23.2488 7.73112 23.2903 7.60507 23.3732 7.56305C23.4562 7.47902 23.5392 7.47902 23.6222 7.47902C23.7467 7.47902 23.8297 7.52103 23.9126 7.60507C24.0786 7.77313 24.0371 8.02523 23.8711 8.1933Z" fill="#FF7010"/>
<path d="M27.9373 17.2689C27.6468 16.9748 27.3149 16.7647 26.9415 16.7227C26.1532 16.6386 25.4063 17.2269 25.3233 18.0252C25.2403 18.8235 25.8212 19.5798 26.6096 19.6638C26.651 19.6638 26.734 19.6638 26.7755 19.6638C27.5224 19.6638 28.1447 19.1176 28.2277 18.3613C28.2692 17.9832 28.1447 17.563 27.9373 17.2689ZM26.6925 18.8655C26.3191 18.8235 26.0702 18.4874 26.1117 18.1512C26.1532 17.7731 26.4851 17.521 26.817 17.563C26.983 17.563 27.1489 17.6891 27.2319 17.8151C27.3149 17.9412 27.3979 18.1092 27.3979 18.2773C27.3564 18.6554 27.0245 18.9075 26.6925 18.8655Z" fill="#FF7010"/>
<path d="M28.311 13.4874C28.145 13.2353 27.8546 13.0672 27.5227 13.0252C27.1907 12.9832 26.8588 13.0672 26.6098 13.2773C26.3609 13.4874 26.1949 13.7815 26.1534 14.1176C26.1119 14.4538 26.1949 14.7899 26.4024 15.042C26.6098 15.2941 26.9003 15.4622 27.2322 15.5042C27.2737 15.5042 27.3152 15.5042 27.3567 15.5042C27.6471 15.5042 27.8961 15.4202 28.1035 15.2521C28.3525 15.042 28.5185 14.7479 28.5599 14.4118C28.6014 14.0756 28.5185 13.7395 28.311 13.4874ZM27.6056 14.5798C27.5227 14.6639 27.3982 14.6639 27.3152 14.6639C27.1907 14.6639 27.1077 14.5798 27.0663 14.4958C26.9833 14.4118 26.9833 14.2857 26.9833 14.2017C26.9833 14.0756 27.0663 13.9916 27.1492 13.9496C27.2322 13.8655 27.3567 13.8655 27.4397 13.8655C27.5641 13.8655 27.6471 13.9496 27.6886 14.0336C27.7301 14.1176 27.7716 14.2437 27.7716 14.3277C27.7716 14.4118 27.6886 14.5378 27.6056 14.5798Z" fill="#FF7010"/>
<path d="M22.0873 19.6639C21.8383 19.3277 21.5479 19.1177 21.1745 19.0756C20.8011 18.9916 20.4276 19.0756 20.0957 19.3277C19.4733 19.7899 19.3074 20.6723 19.7638 21.3445C20.0127 21.7227 20.4691 21.9328 20.9255 21.9328C21.216 21.9328 21.5064 21.8488 21.7554 21.6807C22.0873 21.4706 22.2948 21.1345 22.3362 20.7563C22.4192 20.3782 22.3362 20 22.0873 19.6639ZM21.5064 20.6303C21.4649 20.7983 21.3819 20.9244 21.2575 21.0084C21.0085 21.2185 20.6351 21.1345 20.4276 20.8403C20.2617 20.5882 20.3032 20.2101 20.5936 20C20.8426 19.8319 21.216 19.874 21.4234 20.1681C21.5064 20.2941 21.5479 20.4622 21.5064 20.6303Z" fill="#FF7010"/>
<path d="M16.1954 23.3614C15.8635 23.2773 15.5315 23.3193 15.2826 23.5294C14.9921 23.6975 14.8262 23.9916 14.7432 24.2857C14.5357 24.958 14.9506 25.6303 15.6145 25.7983C15.6975 25.8404 15.822 25.8404 15.905 25.8404C16.4443 25.8404 16.9837 25.4622 17.1082 24.874C17.2742 24.2017 16.8593 23.5294 16.1954 23.3614ZM16.2369 24.7059C16.1954 24.916 15.9879 25.042 15.739 25C15.6145 24.958 15.5315 24.916 15.49 24.832C15.4485 24.7479 15.49 24.6219 15.49 24.4958C15.5315 24.3698 15.573 24.2857 15.656 24.2437C15.739 24.2017 15.7805 24.2017 15.8635 24.2017C15.905 24.2017 15.9464 24.2017 15.9464 24.2017C16.1539 24.2437 16.2784 24.4538 16.2369 24.7059Z" fill="#FF7010"/>
<path d="M8.85132 17.353C8.4779 16.6387 7.56509 16.3445 6.85973 16.7647C6.15438 17.1429 5.86394 18.0672 6.27885 18.7815C6.5278 19.2857 7.06719 19.5798 7.56509 19.5798C7.81404 19.5798 8.02149 19.5378 8.27044 19.4118C8.9758 18.9916 9.22474 18.0672 8.85132 17.353ZM7.85553 18.6555C7.5236 18.8235 7.15017 18.6975 6.98421 18.4034C6.81824 18.0672 6.94272 17.6891 7.23316 17.521C7.56509 17.353 7.93851 17.479 8.10448 17.7731C8.27044 18.0672 8.14597 18.4874 7.85553 18.6555Z" fill="#FF7010"/>
<path d="M12.6686 17.521C12.5026 17.1849 12.1707 16.9328 11.8388 16.8067C11.4653 16.6807 11.0919 16.7227 10.76 16.9328C10.4281 17.1009 10.1791 17.437 10.0546 17.7731C9.93016 18.1513 9.97165 18.5294 10.1791 18.8656C10.3451 19.2437 10.6355 19.4958 11.0089 19.5799C11.1334 19.6219 11.2994 19.6219 11.4239 19.6219C11.6728 19.6219 11.8803 19.5799 12.0877 19.4538C12.4196 19.2857 12.6686 18.9496 12.7931 18.6135C12.9175 18.2353 12.8761 17.8572 12.6686 17.521ZM11.6728 18.7395C11.5483 18.8236 11.3824 18.8236 11.2164 18.7815C11.0504 18.7395 10.926 18.6135 10.8845 18.4874C10.843 18.3614 10.8015 18.1933 10.843 18.0252C10.8845 17.8572 11.0089 17.7311 11.1334 17.6891C11.2579 17.6051 11.4239 17.6051 11.5898 17.6471C11.7558 17.6891 11.8803 17.8151 11.9218 17.9412C12.0877 18.2353 11.9632 18.6135 11.6728 18.7395Z" fill="#FF7010"/>
<path d="M14.2038 11.6386L7.52367 2.89915L6.48638 1.55461C6.19594 1.17646 5.73954 1.05041 5.32462 1.26049C4.49479 1.63864 2.87663 2.64705 1.38293 5.37814C-0.110757 8.10923 -0.0692658 10.084 0.0552086 11.0084C0.138191 11.4706 0.470123 11.8067 0.926529 11.8487L2.58619 11.9748L13.374 13.1512C13.4569 13.1512 13.4984 13.1512 13.4984 13.1512C13.8304 13.1512 14.1208 12.9832 14.2868 12.6891C14.4527 12.3529 14.4527 11.9748 14.2038 11.6386ZM1.75636 11.0924L1.051 11.0084C0.96802 11.0084 0.926529 10.9244 0.885037 10.8823C0.760563 10.084 0.760563 8.31931 2.08829 5.79831C3.45751 3.2773 4.90971 2.35293 5.61506 2.05881C5.69804 2.01679 5.78103 2.05881 5.82252 2.10083L6.27892 2.68906C5.49059 3.06721 4.16286 3.99158 2.91812 6.26049C1.67337 8.57142 1.63188 10.2101 1.75636 11.0924ZM13.6229 12.2689C13.5814 12.3109 13.5814 12.3109 13.5399 12.3109L2.75215 11.1344C2.66917 11.1344 2.62768 11.0924 2.62768 11.0504C2.54469 10.4622 2.46171 8.90755 3.70645 6.63864C4.9512 4.36974 6.27892 3.61343 6.77682 3.36133C6.81831 3.36133 6.8598 3.36133 6.9013 3.40335L13.6229 12.1428C13.6644 12.1849 13.6644 12.2269 13.6229 12.2689Z" fill="#FF7010"/>
<path d="M8.02156 5.79835C7.89709 5.4202 7.64814 5.08406 7.31621 4.91599C6.98428 4.70591 6.56936 4.66389 6.19594 4.78994C5.82252 4.91599 5.49058 5.16809 5.32462 5.50423C5.11716 5.84036 5.07567 6.26053 5.20014 6.63868C5.32462 7.01683 5.57357 7.35297 5.9055 7.56305C6.11296 7.6891 6.3619 7.73112 6.61085 7.73112C7.15024 7.73112 7.64814 7.437 7.89709 6.9328C8.10454 6.59667 8.14604 6.1765 8.02156 5.79835ZM7.15024 6.55465C6.98428 6.89078 6.56936 6.97482 6.27892 6.80675C6.11296 6.72272 6.02997 6.59667 5.98848 6.4286C5.94699 6.26053 5.98848 6.09246 6.07146 5.9244C6.15445 5.75633 6.27892 5.6723 6.44489 5.63028C6.48638 5.63028 6.56936 5.58826 6.61085 5.58826C6.73533 5.58826 6.81831 5.63028 6.90129 5.6723C7.06726 5.75633 7.15024 5.88238 7.19173 6.05045C7.23322 6.21852 7.23322 6.38658 7.15024 6.55465Z" fill="#FF7010"/>
<path d="M8.68538 8.78154C8.1045 8.36137 7.35765 8.57145 7.02572 9.20171C6.85975 9.49582 6.81826 9.83196 6.94274 10.1681C7.02572 10.5042 7.23318 10.7563 7.52362 10.9244C7.68958 11.0084 7.89704 11.0925 8.1045 11.0925C8.22897 11.0925 8.35345 11.0925 8.43643 11.0504C8.76836 10.9664 9.01731 10.7563 9.18327 10.4622C9.5152 9.87397 9.30775 9.11767 8.68538 8.78154ZM8.47792 9.95801C8.35344 10.1681 8.14599 10.2101 7.93853 10.1261C7.85555 10.0841 7.77257 10 7.73107 9.87397C7.68958 9.74792 7.73107 9.66389 7.77257 9.57986C7.81406 9.49582 7.89704 9.41179 8.02151 9.36977C8.02151 9.41179 8.06301 9.36977 8.1045 9.36977C8.18748 9.36977 8.22897 9.36977 8.31195 9.41179C8.51941 9.53784 8.5609 9.74792 8.47792 9.95801Z" fill="#FF7010"/>
<path d="M5.15862 9.36975L4.66072 8.31933C4.57774 8.10924 4.32879 8.02521 4.12134 8.10924C3.91388 8.19328 3.8309 8.44538 3.91388 8.65546L4.41178 9.70588C4.49476 9.87395 4.61923 9.95798 4.7852 9.95798C4.82669 9.95798 4.90967 9.95798 4.95116 9.91596C5.15862 9.83193 5.2416 9.57983 5.15862 9.36975Z" fill="#FF7010"/>
<path d="M16.1125 5.96638L15.6146 4.91596C15.5316 4.70588 15.2827 4.62184 15.0752 4.70588C14.8677 4.78991 14.7848 5.04201 14.8677 5.2521L15.3656 6.30252C15.4486 6.47058 15.5731 6.55462 15.7391 6.55462C15.7805 6.55462 15.8635 6.55462 15.905 6.5126C16.1125 6.42857 16.237 6.17647 16.1125 5.96638Z" fill="#FF7010"/>
<path d="M23.415 11.2185L22.9171 10.1681C22.8341 9.95801 22.5851 9.87398 22.3777 9.95801C22.1702 10.042 22.0872 10.2941 22.1702 10.5042L22.6681 11.5547C22.7511 11.7227 22.8756 11.8068 23.0415 11.8068C23.083 11.8068 23.166 11.8068 23.2075 11.7647C23.415 11.6807 23.498 11.4286 23.415 11.2185Z" fill="#FF7010"/>
<path d="M13.457 24.916L12.9591 23.8656C12.8761 23.6555 12.6271 23.5714 12.4197 23.6555C12.2122 23.7395 12.1292 23.9916 12.2122 24.2017L12.7101 25.2521C12.7931 25.4202 12.9176 25.5042 13.0835 25.5042C13.125 25.5042 13.208 25.5042 13.2495 25.4622C13.457 25.3782 13.5399 25.1261 13.457 24.916Z" fill="#FF7010"/>
<path d="M21.9627 23.9916L20.8009 23.7815C20.5935 23.7395 20.3445 23.9076 20.303 24.1177C20.2615 24.3277 20.4275 24.5798 20.635 24.6219L21.7967 24.8319C21.8382 24.8319 21.8382 24.8319 21.8797 24.8319C22.0872 24.8319 22.2531 24.7059 22.2946 24.4958C22.3776 24.2437 22.2116 24.0336 21.9627 23.9916Z" fill="#FF7010"/>
<path d="M23.8711 16.1344L22.7094 15.9243C22.5019 15.8823 22.253 16.0504 22.2115 16.2605C22.17 16.4706 22.336 16.7227 22.5434 16.7647L23.7052 16.9748C23.7467 16.9748 23.7467 16.9748 23.7882 16.9748C23.9956 16.9748 24.1616 16.8487 24.2031 16.6386C24.2446 16.4285 24.0786 16.1764 23.8711 16.1344Z" fill="#FF7010"/>
<path d="M26.7342 9.57982L25.5724 9.36973C25.365 9.32772 25.116 9.49578 25.0745 9.70587C25.033 9.95797 25.199 10.1681 25.4064 10.2101L26.5682 10.4202C26.6097 10.4202 26.6097 10.4202 26.6512 10.4202C26.8586 10.4202 27.0246 10.2941 27.0661 10.084C27.1076 9.87393 26.9416 9.62183 26.7342 9.57982Z" fill="#FF7010"/>
<path d="M16.1125 21.2605L15.6146 20.2101C15.5316 20 15.2827 19.916 15.0752 20C14.8677 20.084 14.7848 20.3361 14.8677 20.5462L15.3656 21.5966C15.4486 21.7647 15.5731 21.8487 15.7391 21.8487C15.7805 21.8487 15.8635 21.8487 15.905 21.8067C16.1125 21.7227 16.1955 21.4706 16.1125 21.2605Z" fill="#FF7010"/>
<path d="M9.68112 20.7143C9.55664 20.5462 9.26621 20.5042 9.10024 20.6723L8.18743 21.4286C8.02146 21.5547 7.97997 21.8488 8.14594 22.0168C8.22892 22.1009 8.35339 22.1849 8.47787 22.1849C8.56085 22.1849 8.64383 22.1429 8.72682 22.1009L9.63963 21.3446C9.80559 21.1765 9.84708 20.9244 9.68112 20.7143Z" fill="#FF7010"/>
<path d="M21.1328 11.8488C21.0083 11.6807 20.7179 11.6387 20.5519 11.8067L19.6391 12.521C19.4731 12.6891 19.4316 12.9412 19.5976 13.1093C19.6806 13.1933 19.8051 13.2773 19.9295 13.2773C20.0125 13.2773 20.0955 13.2353 20.1785 13.1933L21.0913 12.437C21.2573 12.3109 21.2987 12.0168 21.1328 11.8488Z" fill="#FF7010"/>
<path d="M24.8257 21.9748C24.7012 21.8067 24.4107 21.7647 24.2448 21.9328L23.332 22.6891C23.166 22.8151 23.1245 23.1093 23.2905 23.2773C23.3735 23.3614 23.4979 23.4034 23.6224 23.4034C23.7054 23.4034 23.7884 23.3614 23.8713 23.3193L24.7842 22.563C24.9501 22.437 24.9916 22.1429 24.8257 21.9748Z" fill="#FF7010"/>
</svg>
