<svg width="34" height="34" viewBox="0 0 34 34" fill="none" xmlns="http://www.w3.org/2000/svg">
<path d="M24.7579 12H24.3789C24.2105 7.95789 20.9684 4.71578 16.9684 4.50526V0.421045C16.9684 0.168413 16.8 -7.62939e-06 16.5474 -7.62939e-06C16.2947 -7.62939e-06 16.1263 0.168413 16.1263 0.421045V4.50526C12.0842 4.71578 8.88421 7.95789 8.71579 12H8.42105C8.16842 12 8 12.1684 8 12.421V14.5684C8 14.821 8.16842 14.9895 8.42105 14.9895H8.71579L10.2737 31.621C10.2737 31.8316 10.4842 32 10.6947 32H22.2737C22.4842 32 22.6526 31.8316 22.6947 31.621L24.2526 14.9895H24.7579C25.0105 14.9895 25.1789 14.821 25.1789 14.5684V12.421C25.1789 12.1684 24.9684 12 24.7579 12ZM16.9684 5.34736C20.5053 5.55789 23.3684 8.42104 23.5368 12H16.9684V5.34736ZM16.1263 5.34736V12H9.55789C9.72632 8.42104 12.5474 5.55789 16.1263 5.34736ZM8.84211 12.8421H16.1263V14.1474H8.84211V12.8421ZM9.55789 14.9895H16.1263V17.7263H9.81053L9.55789 14.9895ZM21.8947 31.1579H11.0737L9.89474 18.5263H16.1263V25.8105C16.1263 26.0631 16.2947 26.2316 16.5474 26.2316C16.8 26.2316 16.9684 26.0631 16.9684 25.8105V18.5263H23.0737L21.8947 31.1579ZM23.1579 17.6842H16.9684V14.9895H23.4105L23.1579 17.6842ZM24.3368 14.1474H16.9684V12.8421H24.3368V14.1474Z" fill="#FF7010"/>
<path d="M13.179 19.7894C12.1685 19.7894 11.3264 20.6315 11.3264 21.6421C11.3264 22.6526 12.1685 23.4947 13.179 23.4947C14.1896 23.4947 15.0317 22.6526 15.0317 21.6421C15.0317 20.6315 14.1896 19.7894 13.179 19.7894ZM13.179 22.6526C12.6317 22.6526 12.1685 22.1894 12.1685 21.6421C12.1685 21.0947 12.6317 20.6315 13.179 20.6315C13.7264 20.6315 14.1896 21.0947 14.1896 21.6421C14.1896 22.1894 13.7264 22.6526 13.179 22.6526Z" fill="#FF7010"/>
<path d="M19.5367 25.979C18.5262 25.979 17.6841 26.8211 17.6841 27.8316C17.6841 28.8421 18.4841 29.6842 19.5367 29.6842C20.5472 29.6842 21.3893 28.8421 21.3893 27.8316C21.3893 26.8211 20.5472 25.979 19.5367 25.979ZM19.5367 28.8421C18.9893 28.8421 18.5262 28.379 18.5262 27.8316C18.5262 27.2842 18.9472 26.8211 19.5367 26.8211C20.0841 26.8211 20.5472 27.2842 20.5472 27.8316C20.5472 28.379 20.0841 28.8421 19.5367 28.8421Z" fill="#FF7010"/>
<path d="M19.7896 20.379C18.9475 20.379 18.2317 21.0947 18.2317 21.9368C18.2317 22.779 18.9475 23.4947 19.7896 23.4947C20.6317 23.4947 21.3475 22.779 21.3475 21.9368C21.3475 21.0947 20.6317 20.379 19.7896 20.379ZM19.7896 22.6526C19.4106 22.6526 19.0738 22.3158 19.0738 21.9368C19.0738 21.5579 19.4106 21.2211 19.7896 21.2211C20.1685 21.2211 20.5054 21.5579 20.5054 21.9368C20.5054 22.3158 20.2106 22.6526 19.7896 22.6526Z" fill="#FF7010"/>
<path d="M14.1475 26.2737C13.3054 26.2737 12.5896 26.9895 12.5896 27.8316C12.5896 28.6737 13.3054 29.3895 14.1475 29.3895C14.9896 29.3895 15.7054 28.6737 15.7054 27.8316C15.7054 26.9895 14.9896 26.2737 14.1475 26.2737ZM14.1475 28.5473C13.7685 28.5473 13.4317 28.2105 13.4317 27.8316C13.4317 27.4526 13.7685 27.1158 14.1475 27.1158C14.5264 27.1158 14.8633 27.4526 14.8633 27.8316C14.8633 28.2526 14.5264 28.5473 14.1475 28.5473Z" fill="#FF7010"/>
</svg>
