<svg width="34" height="34" viewBox="0 0 34 34" fill="none" xmlns="http://www.w3.org/2000/svg">
<path d="M28.7464 17.3368C28.6374 17.1227 28.6374 16.8773 28.7464 16.6633L29.757 14.6795C30.3197 13.575 29.8739 12.2585 28.7421 11.6823L26.7093 10.6474C26.49 10.5358 26.3397 10.3371 26.2968 10.1026L25.8992 7.92767C25.6778 6.71676 24.5105 5.90305 23.2421 6.07525L20.9636 6.3845C20.7177 6.41781 20.4745 6.34195 20.2961 6.17635L18.6422 4.64115C17.7213 3.78631 16.2787 3.78626 15.3578 4.64115L13.7039 6.1765C13.5254 6.34215 13.2823 6.41786 13.0364 6.38465L10.7579 6.0754C9.4891 5.9031 8.32217 6.71691 8.10079 7.92783L7.70324 10.1026C7.66032 10.3372 7.50997 10.5358 7.29071 10.6475L5.25796 11.6824C4.12617 12.2586 3.68035 13.5751 4.24302 14.6797L5.25357 16.6634C5.36259 16.8774 5.36259 17.1229 5.25357 17.3369L4.24297 19.3206C3.6803 20.4251 4.12611 21.7416 5.25791 22.3178L7.29066 23.3527C7.50997 23.4643 7.66032 23.663 7.70324 23.8975L8.10079 26.0724C8.30232 27.1748 9.28742 27.9478 10.4196 27.9477C10.5311 27.9477 10.6442 27.9402 10.758 27.9248L13.0364 27.6155C13.2822 27.5821 13.5255 27.6581 13.7039 27.8237L15.3578 29.3589C15.8184 29.7864 16.4091 30 17 30C17.5908 29.9999 18.1819 29.7863 18.6422 29.3589L20.2961 27.8237C20.4746 27.6581 20.7178 27.5824 20.9636 27.6155L23.2421 27.9248C24.5111 28.097 25.6778 27.2833 25.8992 26.0724L26.2968 23.8976C26.3397 23.663 26.4901 23.4644 26.7093 23.3527L28.7421 22.3178C29.8739 21.7416 30.3197 20.425 29.757 19.3205L28.7464 17.3368ZM28.0096 20.9931L25.9768 22.028C25.3288 22.358 24.8843 22.9449 24.7575 23.6384L24.36 25.8132C24.2851 26.2229 23.8903 26.4981 23.461 26.44L21.1825 26.1307C20.4559 26.0319 19.7369 26.2563 19.2095 26.7458L17.5556 28.281C17.2441 28.5701 16.756 28.5701 16.4444 28.281L14.7905 26.7458C14.3448 26.3321 13.7621 26.1079 13.1538 26.1079C13.0424 26.1079 12.93 26.1154 12.8175 26.1307L10.539 26.4399C10.11 26.4981 9.71498 26.2229 9.64004 25.8132L9.24243 23.6383C9.11563 22.9448 8.67119 22.3579 8.02305 22.0279L5.9903 20.993C5.60736 20.7981 5.45653 20.3527 5.64689 19.979L6.6575 17.9952C6.97969 17.3627 6.97969 16.6373 6.6575 16.0047L5.64689 14.021C5.45653 13.6473 5.60736 13.2019 5.9903 13.007L8.02305 11.9721C8.67114 11.642 9.11563 11.0551 9.24238 10.3616L9.63993 8.18681C9.71487 7.77711 10.1096 7.50188 10.5389 7.56007L12.8174 7.86933C13.5437 7.96799 14.263 7.7437 14.7904 7.25422L16.4443 5.71902C16.7558 5.42988 17.2439 5.42988 17.5555 5.71902L19.2094 7.25422C19.7368 7.74375 20.4559 7.96799 21.1824 7.86933L23.4609 7.56007C23.8899 7.50183 24.285 7.77711 24.3599 8.18681L24.7574 10.3617C24.8842 11.0552 25.3287 11.6421 25.9768 11.9721L28.0095 13.007C28.3925 13.2019 28.5433 13.6473 28.353 14.021L27.3423 16.0047C27.0202 16.6372 27.0202 17.3627 27.3423 17.9952L28.353 19.9789C28.5434 20.3527 28.3925 20.7981 28.0096 20.9931Z" fill="#E23535"/>
<path d="M22.7094 11.5215C22.4043 11.2287 21.9095 11.2287 21.6044 11.5215L11.2904 21.4181C10.9852 21.7109 10.9852 22.1857 11.2904 22.4785C11.443 22.6249 11.643 22.6981 11.8429 22.6981C12.0428 22.6981 12.2429 22.6249 12.3954 22.4785L22.7094 12.5819C23.0146 12.289 23.0146 11.8143 22.7094 11.5215Z" fill="#E23535"/>
<path d="M13.8744 10.252C12.2946 10.252 11.0093 11.4853 11.0093 13.0012C11.0093 14.5171 12.2946 15.7504 13.8744 15.7504C15.4543 15.7504 16.7396 14.5171 16.7396 13.0012C16.7396 11.4853 15.4543 10.252 13.8744 10.252ZM13.8744 14.2508C13.1563 14.2508 12.5721 13.6902 12.5721 13.0012C12.5721 12.3121 13.1563 11.7515 13.8744 11.7515C14.5925 11.7515 15.1768 12.3121 15.1768 13.0012C15.1768 13.6902 14.5925 14.2508 13.8744 14.2508Z" fill="#E23535"/>
<path d="M20.1257 18.2496C18.5458 18.2496 17.2605 19.483 17.2605 20.9989C17.2605 22.5148 18.5458 23.7481 20.1257 23.7481C21.7055 23.7481 22.9908 22.5148 22.9908 20.9989C22.9908 19.483 21.7055 18.2496 20.1257 18.2496ZM20.1257 22.2485C19.4076 22.2485 18.8233 21.6879 18.8233 20.9989C18.8233 20.3098 19.4075 19.7492 20.1257 19.7492C20.8438 19.7492 21.428 20.3098 21.428 20.9989C21.428 21.6879 20.8438 22.2485 20.1257 22.2485Z" fill="#E23535"/>
</svg>
