<svg width="303" height="255" viewBox="0 0 303 255" fill="none" xmlns="http://www.w3.org/2000/svg">
<path d="M213.969 20.1329C245 27.8117 270.52 61.4504 270.124 94.6172C269.736 127.712 243.429 160.335 221.416 191.73C199.466 223.129 181.933 253.32 159.742 254.92C137.523 256.496 110.681 229.448 88.4702 211.507C66.1896 193.57 48.591 184.731 33.4321 168.966C18.2733 153.2 5.61634 130.5 8.57984 110.175C11.5433 89.8499 30.135 71.9128 49.5801 62.1263C69.0911 52.2718 89.3895 50.5721 117.849 40.5817C146.309 30.5912 182.907 12.3981 213.969 20.1329Z" fill="white"/>
<path d="M198.263 173.629L157.694 91.0456C156.456 90.3017 151.487 87.0103 151.487 87.0103" stroke="#DFDFDF" stroke-width="5" stroke-linecap="round" stroke-linejoin="round"/>
<path d="M154.784 97.5848C154.299 95.933 152.845 92.5296 152.845 92.5296C151.956 92.4736 145.773 89.1941 145.773 89.1941" stroke="#DFDFDF" stroke-width="5" stroke-linecap="round" stroke-linejoin="round"/>
<path d="M144.005 89.4979L163.229 81.4111" stroke="#DFDFDF" stroke-width="5" stroke-linecap="round" stroke-linejoin="round"/>
<path d="M5.92661 215.646L0.984863 220.353L12.8466 236.391L16.5161 233.044L10.8684 218.774L5.92661 215.646Z" fill="black"/>
<path d="M101.709 201.009L97.6245 208.767L107.764 225.045L112.035 223.909L109.234 202.664L101.709 201.009Z" fill="black"/>
<path d="M147.934 91.0458C151.267 91.0458 153.97 88.967 153.97 86.4025C153.97 83.8381 151.267 81.7593 147.934 81.7593C144.601 81.7593 141.898 83.8381 141.898 86.4025C141.898 88.967 144.601 91.0458 147.934 91.0458Z" fill="#D37C59"/>
<path d="M67.3882 91.3057C64.6729 95.305 5.00342 216.118 5.00342 216.118L11.7528 220.365L90.4949 132.507L67.3882 91.3057Z" fill="#56CAD8"/>
<path d="M118.796 61.9902C120.347 63.358 124.893 68.6772 126.379 69.645C127.865 70.6129 144.905 81.5712 148.101 82.539C151.297 83.5069 144.505 86.3864 144.505 86.3864C144.505 86.3864 122.306 81.3112 120.665 80.1834C119.025 79.0556 109.3 70.9848 109.3 68.8212C109.3 66.6575 118.796 61.9902 118.796 61.9902Z" fill="#D37C59"/>
<path d="M105.79 51.5919C110.743 46.0528 120.417 59.1907 120.208 61.1224C119.998 63.0541 113.156 71.1568 108.819 71.1568C107.52 71.1568 102.31 55.4833 105.79 51.5919Z" fill="#FCC486"/>
<path d="M66.6201 92.5215C65.4564 94.1212 60.4138 106.919 60.4138 111.319C60.4138 141.314 103.788 149.097 110.018 149.097C109.118 153.284 99.5755 200.844 100.025 201.888C100.475 202.932 108.392 205.064 110.018 204.788C116.224 201.304 136.258 152.796 134.753 145.897C132.639 136.231 99.4552 107.959 94.6609 105.144C89.8665 102.328 66.6201 92.5215 66.6201 92.5215Z" fill="#74D5DE"/>
<path d="M95.2737 39.1938C128.66 39.1938 102.795 103.896 96.9223 107.403C93.0433 109.715 68.994 100.924 66.4184 92.1055C65.5379 89.094 76.8255 39.1938 95.2737 39.1938Z" fill="#FED385"/>
<path d="M142.853 93.2333C146.186 93.2333 148.888 91.1545 148.888 88.59C148.888 86.0256 146.186 83.9468 142.853 83.9468C139.519 83.9468 136.817 86.0256 136.817 88.59C136.817 91.1545 139.519 93.2333 142.853 93.2333Z" fill="#DE8E68"/>
<path d="M84.6184 69.069C84.6999 72.3325 85.7588 87.3102 87.0738 87.7621C102.977 93.2333 130.518 90.8216 135.273 90.4937C140.029 90.1657 143.078 86.7143 142.841 85.8944C142.604 85.0745 127.647 78.7875 101.682 78.0476C101.201 75.0241 102.353 65.8855 101.166 65.0697C99.9789 64.2538 84.6184 69.069 84.6184 69.069Z" fill="#DE8E68"/>
<path d="M89.0365 41.9654C102.849 39.0539 105.328 65.6417 104.001 67.6014C102.675 69.5611 85.0761 72.3327 82.7798 70.6209C80.4835 68.9092 78.5634 44.1691 89.0365 41.9654Z" fill="#FED892"/>
<path d="M98.4352 22.6604C97.7991 25.164 93.4586 39.4978 93.7262 40.2576C93.9939 41.0175 99.9674 44.369 102.26 44.0011C102.349 42.9092 103.323 37.0621 105.316 33.5467C107.31 30.0312 98.4352 22.6604 98.4352 22.6604Z" fill="#D37C59"/>
<path d="M116.123 22.7323C116.87 15.1072 113.492 8.51102 108.578 7.99925C103.664 7.48747 99.0747 13.2539 98.3277 20.8789C97.5807 28.504 100.959 35.1002 105.873 35.612C110.787 36.1237 115.376 30.3573 116.123 22.7323Z" fill="#DE8E68"/>
<path d="M97.4693 22.6604C96.453 22.0845 94.5251 18.6931 94.5251 15.5416C94.5251 10.6103 99.2924 7.80278 102.508 6.34301C104.94 5.21918 107.008 0 112.547 0C116.965 0 117.26 4.58728 119.292 4.76325C124.56 5.21518 127.515 5.41915 127.515 9.36653C127.515 12.2661 123.908 20.1648 116.55 20.1648C116.55 18.7011 116.073 15.0656 115.285 13.3179C110.863 13.5459 107.264 19.405 101.131 19.381C99.816 19.357 97.4693 22.6604 97.4693 22.6604Z" fill="#FD8369"/>
<path d="M99.785 25.1162C101.289 25.1162 102.508 23.5816 102.508 21.6887C102.508 19.7958 101.289 18.2612 99.785 18.2612C98.2811 18.2612 97.062 19.7958 97.062 21.6887C97.062 23.5816 98.2811 25.1162 99.785 25.1162Z" fill="#DE8E68"/>
<path d="M295.83 204.792H169.097V176.44C176.029 175.808 274.562 166.21 274.562 166.21V104.568L154.784 97.5847L169.097 176.448" stroke="#DFDFDF" stroke-width="5" stroke-linecap="round" stroke-linejoin="round"/>
<path d="M179.284 220.457C182.531 220.457 185.164 217.743 185.164 214.394C185.164 211.046 182.531 208.331 179.284 208.331C176.036 208.331 173.403 211.046 173.403 214.394C173.403 217.743 176.036 220.457 179.284 220.457Z" stroke="#DFDFDF" stroke-width="5" stroke-linecap="round" stroke-linejoin="round"/>
<path d="M294.135 220.457C297.382 220.457 300.015 217.743 300.015 214.394C300.015 211.046 297.382 208.331 294.135 208.331C290.887 208.331 288.254 211.046 288.254 214.394C288.254 217.743 290.887 220.457 294.135 220.457Z" stroke="#DFDFDF" stroke-width="5" stroke-linecap="round" stroke-linejoin="round"/>
<path d="M159.462 123.353H274.561" stroke="#DFDFDF" stroke-width="5" stroke-linecap="round" stroke-linejoin="round"/>
<path d="M162.643 140.878H274.562" stroke="#DFDFDF" stroke-width="5" stroke-linecap="round" stroke-linejoin="round"/>
<path d="M134.272 93.5894L144.005 89.498" stroke="#DFDFDF" stroke-width="5" stroke-linecap="round" stroke-linejoin="round"/>
<path d="M172.383 140.878C171.122 137.202 157.748 97.7485 157.748 97.7485" stroke="#DFDFDF" stroke-width="5" stroke-linecap="round" stroke-linejoin="round"/>
</svg>
